<?xml version="1.0" encoding="UTF-8"?><svg id="Lonly_01" xmlns="http://www.w3.org/2000/svg" viewBox="0 0 1000 1000"><defs><style>.cls-1{fill:#fff;fill-rule:evenodd;}.cls-2{fill:#009ca6;}</style></defs><g id="Logo_Viereck"><rect class="cls-2" width="1000" height="1000"/><path id="P" class="cls-1" d="M651.52,866.13s12.22-150.41,15.24-186.55c7.17,0,199.8,9.08,215.34-177.68,7.26-88.22-44.74-177.06-165.56-177.06h-182.43l-13.11,158.28h162.13s17.76,0,16.15,19.37c-1.51,19.29-19.6,19.79-19.6,19.79l-161.92-.29-28.26,344.13h162.03Z"/><path id="D" class="cls-1" d="M284.78,680.39h182.62l12.92-158.1-162.13-.29s-17.76,.29-16.04-19.08c1.41-19.19,19.37-19.79,19.37-19.79h162.03l28.47-343.94h-162.23s-12.4,150.51-15.24,186.36c-7.26,0-199.98-8.99-215.32,177.97-7.36,88.24,44.51,176.87,165.56,176.87Z"/></g></svg>